<?xml version="1.0" standalone="no"?><!DOCTYPE svg PUBLIC "-//W3C//DTD SVG 1.1//EN" "http://www.w3.org/Graphics/SVG/1.1/DTD/svg11.dtd"><svg class="icon" width="64px" height="64.00px" viewBox="0 0 1024 1024" version="1.1" xmlns="http://www.w3.org/2000/svg"><path fill="#0AC266" d="M929.344 204.8H478.656C468.8 204.8 460.8 196.8 460.8 186.944v-34.752C460.8 100.16 418.24 57.6 366.144 57.6H94.656C42.56 57.6 0 100.16 0 152.256v777.152C0 981.44 42.56 1024 94.656 1024h834.752c52.032 0 94.656-42.56 94.656-94.656V299.456C1024 247.36 981.44 204.8 929.344 204.8zM602.24 757.568l-85.12-44.8c-5.184-2.752-11.392-2.752-16.64 0l-85.12 44.8c-13.056 6.912-28.352-4.224-25.856-18.816l16.256-94.848a17.92 17.92 0 0 0-5.12-15.808L333.504 562.752c-10.88-10.624-4.352-29.184 10.816-30.528l91.456-8.32c6.336-0.576 11.904-4.48 14.528-10.24l42.24-90.688c6.4-13.76 25.92-13.76 32.32 0l42.24 90.688c2.688 5.76 8.256 9.664 14.528 10.24l91.456 8.32c15.168 1.408 21.76 19.904 10.816 30.528L617.024 628.16c-4.224 4.096-6.144 9.984-5.12 15.808l16.256 94.848c2.496 14.528-12.8 25.664-25.92 18.752z"  /></svg>