<?xml version="1.0" standalone="no"?><!DOCTYPE svg PUBLIC "-//W3C//DTD SVG 1.1//EN" "http://www.w3.org/Graphics/SVG/1.1/DTD/svg11.dtd"><svg class="icon" width="64px" height="64.00px" viewBox="0 0 1024 1024" version="1.1" xmlns="http://www.w3.org/2000/svg"><path fill="#0AC266" d="M806.912 0H217.088C131.072 0 63.488 69.632 63.488 155.648v782.336c0 30.72 16.384 59.392 43.008 75.776 12.288 6.144 26.624 10.24 40.96 10.24 16.384 0 30.72-4.096 45.056-12.288l307.2-194.56c4.096-2.048 8.192-4.096 12.288-4.096 4.096 0 8.192 2.048 10.24 4.096l307.2 194.56c14.336 8.192 28.672 12.288 45.056 12.288 14.336 0 28.672-4.096 40.96-10.24 26.624-16.384 43.008-45.056 43.008-75.776V155.648c2.048-86.016-65.536-153.6-151.552-155.648z m67.584 956.416c-4.096 0-8.192-2.048-10.24-4.096l-307.2-194.56c-14.336-8.192-28.672-12.288-45.056-12.288-16.384 0-30.72 4.096-45.056 12.288L161.792 952.32c-4.096 2.048-6.144 4.096-10.24 4.096-6.144 0-10.24-2.048-14.336-6.144-4.096-4.096-6.144-8.192-6.144-14.336V155.648c0-47.104 38.912-86.016 86.016-88.064h589.824c47.104 0 86.016 38.912 86.016 88.064v780.288c0 10.24-8.192 18.432-18.432 20.48zM667.648 262.144H356.352c-18.432 0-32.768 14.336-32.768 32.768 0 18.432 14.336 32.768 32.768 32.768h311.296c18.432 0 32.768-14.336 32.768-32.768 0-16.384-14.336-30.72-32.768-32.768z" /></svg>