<?xml version="1.0" standalone="no"?><!DOCTYPE svg PUBLIC "-//W3C//DTD SVG 1.1//EN" "http://www.w3.org/Graphics/SVG/1.1/DTD/svg11.dtd"><svg class="icon" width="64px" height="64.00px" viewBox="0 0 1024 1024" version="1.1" xmlns="http://www.w3.org/2000/svg"><path fill="#0AC266" d="M896 256v576a128 128 0 0 1-128 128H256a128 128 0 0 1-128-128V256H64V192h192V128a64 64 0 0 1 64-64h384a64 64 0 0 1 64 64v64h192v64h-64z m-192-128H320v64h384V128z m128 128H192v576a64 64 0 0 0 64 64h512a64 64 0 0 0 64-64V256zM576 384h64v384H576V384zM384 384h64v384H384V384z" /></svg>